<?xml version="1.0" encoding="utf-8"?>
<!-- Generator: Adobe Illustrator 16.0.0, SVG Export Plug-In . SVG Version: 6.00 Build 0)  -->
<!DOCTYPE svg PUBLIC "-//W3C//DTD SVG 1.1 Basic//EN" "http://www.w3.org/Graphics/SVG/1.1/DTD/svg11-basic.dtd">
<svg version="1.1" baseProfile="basic" xmlns="http://www.w3.org/2000/svg" xmlns:xlink="http://www.w3.org/1999/xlink" x="0px"
	 y="0px" width="210px" height="165px" viewBox="0 0 210 165" xml:space="preserve">
<g id="Layer_1">
	<g>
		<g>
			<path display="none" fill="#FEFEFE" d="M4.336,157.145c0.805-1.074,2.051-1.881,3.753-2.055
				c31.052-3.17,62.138-2.87,93.233-1.588c36.313-0.241,72.621-0.027,108.837,2.324c-0.093-50.756-0.102-101.512,0.02-152.269
				c0.009-3.071-0.727-3.548-3.621-3.544C138.892,0.11,71.225,0.116,3.558,0c-3.07-0.006-3.55,0.725-3.544,3.62
				C0.118,56.287,0.125,108.953,0,161.62c-0.004,1.703,0.221,2.609,0.916,3.078C-0.597,161.92,0.534,157.646,4.336,157.145z"/>
			<path fill="#5879B7" d="M181.992,53.915c0.34-4.81,0.576-9.629,1.061-14.424c0.279-2.771-0.509-3.926-3.469-3.816
				c-4.819,0.18-9.649-0.009-14.477,0.015c-5.353,0.024-6.955-1.414-7.004-6.637c-0.058-6.162,0.055-12.326-0.036-18.487
				c-0.064-4.33,1.805-6.509,6.244-6.49c11.158,0.049,22.318,0.029,33.479,0.012c4.126-0.007,6.146,2.051,6.153,6.129
				c0.014,6.329-0.051,12.659,0.022,18.987c0.05,4.301-1.836,6.781-6.244,6.454c-3.154-0.234-4.368,1.416-5.475,3.917
				c-3.025,6.84-6.227,13.603-9.359,20.396C180.349,58.283,181.914,55.988,181.992,53.915z"/>
			<path fill="#00903D" d="M31.474,62.674c-5.094-7.867-10.25-15.694-15.245-23.623c-1.536-2.438-3.157-3.944-6.32-3.586
				c-3.98,0.451-5.809-1.787-5.814-5.648c-0.01-6.655-0.031-13.311,0.01-19.966c0.024-3.887,2.119-5.757,5.948-5.759
				c11.314-0.005,22.628-0.009,33.941,0.003c3.822,0.004,5.912,1.851,5.919,5.771c0.013,6.655-0.035,13.311,0.015,19.965
				c0.029,3.956-1.83,5.771-5.787,5.711c-5.323-0.081-10.65,0.07-15.971-0.055c-2.802-0.065-3.349,0.664-2.498,3.474
				c2.347,7.742,4.315,15.599,6.433,23.41C31.896,62.472,31.685,62.572,31.474,62.674z"/>
			<path fill="#DF0209" d="M129.336,62.573c-1.18-7.897-2.389-15.29-3.344-22.715c-0.4-3.111-1.367-4.499-4.921-4.446
				c-15.646,0.231-14.089,1.561-14.126-14.18c-0.008-3.833,0.075-7.667-0.021-11.497c-0.094-3.827,1.974-5.578,5.48-5.606
				c11.496-0.09,22.994-0.059,34.49-0.019c3.608,0.014,5.584,1.879,5.596,5.562c0.021,6.831,0.032,13.663-0.012,20.494
				c-0.024,3.67-1.868,5.328-5.629,5.402c-3.586,0.07-8.198-1.673-10.493,0.869c-2.155,2.387-2.072,6.823-2.896,10.376
				c-1.127,4.861-2.174,9.741-3.282,14.607C130.116,61.703,129.816,61.932,129.336,62.573z"/>
			<path fill="#FCD100" d="M80.549,60.318c-4.324-6.987-8.762-13.907-12.913-20.995c-1.578-2.695-3.188-4.397-6.602-3.989
				c-3.461,0.413-5.281-1.328-5.256-4.942c0.048-6.99,0.085-13.982-0.014-20.972c-0.052-3.664,1.965-5.241,5.206-5.271
				c11.65-0.105,23.302-0.125,34.952,0.006c3.242,0.036,5.202,1.853,5.178,5.396c-0.046,6.823-0.052,13.648,0.003,20.473
				c0.031,3.769-1.73,5.449-5.488,5.388c-5.491-0.089-10.986,0.056-16.477-0.054c-2.529-0.051-3.102,0.646-2.423,3.203
				c1.862,7.016,3.41,14.115,5.083,21.181C81.382,59.935,80.966,60.126,80.549,60.318z"/>
			<path fill="#DF0209" d="M144.117,97.101c3.221-4.279,7.366-2.65,11.393-1.784c4.427,2.054,6.045,5.998,4.183,10.917
				c-0.979,2.583-2.188,5.155-4.707,6.732c-4.838,8.09-9.689,16.172-14.513,24.271c-5.446,9.149-11.604,9.228-17.046,0.14
				c-4.849-8.103-9.62-16.249-14.427-24.376c-4.162-3.048-5.284-7.371-5.114-12.229c0.11-3.134,1.943-4.773,4.817-5.49
				c3.437-1.071,6.883-1.389,10.35-0.134c2.188,0.735,2.578,2.598,2.857,4.534c0.045,0.323,0.028,0.674,0.146,0.975
				c1.788,4.593,3.96,9.26,9.59,9.424c5.401,0.156,7.734-4.306,9.813-8.545c0.362-0.739,0.535-1.561,0.87-2.318
				C142.731,98.35,143.211,97.542,144.117,97.101z"/>
			<path fill="#5879B7" d="M154.984,112.966c0.817-1.616,1.608-3.25,2.463-4.849c2.948-5.528,2.505-8.508-1.939-12.802
				c3.14-1.875,6.349-1,9.555-0.254c2.132,0.795,2.563,2.638,2.84,4.582c1.757,6.517,5.753,11.061,10.111,10.487
				c6.06-0.795,8.527-5.499,10.031-10.818c0.127-0.437,0.314-0.849,0.541-1.241c0.989-1.194,2.041-2.324,3.467-3.024
				c4.48-1.723,8.694-1.084,11.729,2.578c2.826,3.411,1.515,7.249-0.486,10.716c-5.815,10.079-11.549,20.21-17.572,30.165
				c-4.686,7.742-11.037,7.621-15.8-0.204C164.826,129.928,159.954,121.416,154.984,112.966z"/>
			<path fill="#FDD100" d="M108.703,95.281c-4.393,3.717-5.066,6.833-2.56,12.038c0.92,1.909,1.902,3.788,2.855,5.681
				c-4.844,8.106-9.684,16.216-14.535,24.318c-5.476,9.145-11.613,9.095-17.06-0.098c-4.731-7.983-9.508-15.94-14.265-23.908
				c-3.574-2.165-4.993-5.768-5.772-9.512c-0.793-3.809,0.463-6.92,4.6-8.182c3.704-1.234,7.421-1.969,11.199-0.283
				c2.324,0.847,2.746,3.015,3.474,4.975c-0.022,2.654,1.32,4.74,2.938,6.642c3.62,4.252,8.65,4.337,12.46,0.263
				c1.951-2.087,2.978-4.732,4.245-7.229c1.096-1.75,1.628-3.925,3.693-4.95C102.925,93.725,105.816,94.406,108.703,95.281z"/>
			<path fill="#00903D" d="M61.969,95.62c-4.399,3.482-4.239,7.647-1.816,12.149c0.995,1.849,1.992,3.694,2.988,5.542
				c-4.914,8.285-9.8,16.587-14.749,24.851c-5.275,8.809-11.627,8.777-16.882-0.139c-5.568-9.449-10.991-18.983-16.515-28.458
				c-2.199-3.771-3.92-7.849-0.681-11.542c3.245-3.699,7.669-4.164,12.224-2.036c0.621,0.29,0.799-0.266,0.989-0.7
				c1.834,0.179,1.897,1.6,2.077,2.942c-0.313,1.848,0.51,3.389,1.358,4.922c0.549,1.017,1.024,2.071,1.711,3.005
				c4.708,6.407,10.79,6.114,15.042-0.682c1.063-1.698,1.562-3.623,2.431-5.397c0.374-0.643,0.866-1.132,1.642-1.241
				C54.044,94.163,57.827,94.323,61.969,95.62z"/>
			<path fill="#AA0F11" d="M121.097,99.843c-0.682-1.564-1.362-3.131-2.045-4.695c-0.578-3.432-2.004-6.642-2.301-10.174
				c-0.745-8.847,5.699-16.476,14.484-16.863c8.683-0.382,15.539,6.276,15.918,15.01c0.219,5.008-2.322,9.262-3.038,13.979
				c-0.193,0.653-0.388,1.309-0.581,1.963c-1.805,1.333-2.078,3.682-3.597,5.263C133.871,110.646,126.181,108.854,121.097,99.843z"
				/>
			<path fill="#003A88" d="M189.199,97.999c-0.191,0.26-0.226,0.538-0.102,0.836c-0.296,0.395-0.636,0.775-0.813,1.229
				c-1.84,4.708-5.212,7.982-10.266,7.841c-5.073-0.144-8.81-3.226-10.845-8.044c-0.007-1.907-1.222-3.282-2.113-4.8
				c-0.758-3.225-1.79-6.41-2.218-9.677c-1.193-9.144,5.436-16.936,14.456-17.279c8.823-0.336,15.819,6.646,15.813,15.648
				c-0.003,3.573-1.363,6.811-2.137,10.193C190.631,95.407,190.395,96.913,189.199,97.999z"/>
			<path fill="#F09600" d="M75.809,100.037c-0.88-1.566-1.76-3.134-2.641-4.7c-0.6-4.065-2.434-7.84-2.274-12.128
				c0.308-8.287,6.523-14.879,14.701-15.111c8.3-0.235,15.198,6.42,15.578,14.834c0.177,3.921-1.397,7.441-2.082,11.16
				c-0.606,2.063-1.449,4.02-2.583,5.853c-4.674,8.277-10.977,10.16-17.295,5.319C77.389,103.866,76.709,101.929,75.809,100.037z"/>
			<path fill="#006C2D" d="M51.787,98.836c-0.239,0.424-0.479,0.85-0.718,1.272c-0.377,0.54-0.768,1.07-1.148,1.606
				c-6.039,8.517-12.299,8.823-19.211,0.939c-0.768-1.479-2.809-2.507-1.664-4.668c-0.507-0.901-1.014-1.803-1.519-2.702
				c-1.83-3.795-2.759-7.772-2.617-12.015c0.267-7.983,6.32-14.136,14.203-14.354c8.735-0.24,15.201,5.342,16.083,13.534
				C55.829,88.343,52.761,93.347,51.787,98.836z"/>
			<path fill="#748EC3" d="M181.992,53.915c0.592,1.975-0.662,4.223,0.896,6.055c-0.242,0.888-0.381,1.838-1.889,2.622
				C181.252,59.456,180.67,56.633,181.992,53.915z"/>
			<path fill="#FDF8ED" d="M96.372,99.143C97,97.31,97.7,95.516,99.091,94.092c0.295,0.314,0.591,0.629,0.887,0.942
				c-0.938,1.735-1.875,3.472-2.813,5.208C96.718,100.006,96.454,99.641,96.372,99.143z"/>
			<path fill="#BCC0DC" d="M189.199,97.999c0.203-1.521,0.59-2.961,1.776-4.051c0.358,0.366,0.718,0.732,1.076,1.099
				C191.351,96.273,191.206,98.036,189.199,97.999z"/>
			<path fill="#FDFAF8" d="M121.097,99.843c0.544,0.351,1.188,0.605,1.619,1.063c7.901,8.323,11.688,8.179,18.923-0.792
				c0.514-0.635,0.855-1.431,1.896-1.05c-0.379,1.088-0.669,2.218-1.152,3.258c-2.243,4.817-4.866,9.384-11.104,9.188
				c-4.346-0.135-9.229-5.354-10.797-11.012C120.439,100.349,120.881,100.064,121.097,99.843z"/>
			<path fill="#F9F9FC" d="M167.175,99.861c0.146,0.078,0.318,0.128,0.436,0.237c9.898,9.374,11.372,9.305,20.562-0.942
				c0.191-0.213,0.612-0.219,0.927-0.321c-0.319,4.605-2.807,8.058-6.162,10.871c-2.83,2.373-6.189,2.624-9.229,0.532
				C170.125,107.774,166.996,104.798,167.175,99.861z"/>
			<path fill="#FEFBF3" d="M96.372,99.143c0.264,0.365,0.528,0.732,0.792,1.1c-0.535,2.874-2.06,5.274-3.889,7.431
				c-2.78,3.278-6.144,5.065-10.547,3.202c-4.166-1.762-7.22-6.552-6.915-10.836c0.132,0.089,0.293,0.155,0.403,0.271
				C84.877,109.349,88.568,109.135,96.372,99.143z"/>
			<path fill="#F5F8F5" d="M31.068,102.098c7.731,7.452,11.063,7.255,18.37-1.039c0.395-0.447,1.081-0.64,1.631-0.949
				c0.271,1.082-0.547,1.801-0.852,2.694c-1.703,5.006-4.522,9.131-10.209,9.175c-5.455,0.042-8.272-3.94-10.005-8.699
				C29.505,102.116,30.11,101.948,31.068,102.098z"/>
			<path fill="#F4F7F3" d="M31.068,102.098c-0.355,0.394-0.71,0.787-1.064,1.182c-0.468-1.736-3.468-3.014-0.958-5.29
				C28.736,99.841,30.603,100.623,31.068,102.098z"/>
		</g>
	</g>
</g>
<g id="Layer_2">
	<g>
		<path fill="#000" d="M3.104,159.829c-0.806-0.774-1.209-1.86-1.209-3.257c0-1.468,0.392-2.595,1.176-3.378
			c0.784-0.784,1.946-1.176,3.487-1.176c0.504,0,0.966,0.038,1.385,0.114c0.419,0.077,0.836,0.188,1.25,0.331v1.906
			c-0.784-0.325-1.608-0.487-2.473-0.487c-0.901,0-1.561,0.217-1.98,0.649c-0.419,0.432-0.628,1.112-0.628,2.04
			c0,0.874,0.218,1.521,0.655,1.939s1.097,0.629,1.98,0.629c0.874,0,1.694-0.158,2.459-0.474v1.919
			c-0.793,0.271-1.671,0.405-2.635,0.405C5.065,160.991,3.91,160.604,3.104,159.829z"/>
		<path fill="#000" d="M11.32,160.093c-0.716-0.599-1.074-1.448-1.074-2.547v-5.393h2.176v5.189c0,0.604,0.155,1.054,0.466,1.352
			c0.311,0.297,0.764,0.446,1.358,0.446c0.594,0,1.047-0.149,1.358-0.446c0.311-0.298,0.466-0.748,0.466-1.352v-5.189h2.176v5.393
			c0,1.099-0.358,1.948-1.074,2.547c-0.716,0.6-1.692,0.898-2.926,0.898C13.011,160.991,12.036,160.692,11.32,160.093z"/>
		<path fill="#000" d="M19.557,152.153h4.352c1,0,1.75,0.264,2.25,0.791c0.5,0.526,0.75,1.259,0.75,2.195
			c0,0.586-0.146,1.1-0.439,1.541c-0.292,0.441-0.701,0.771-1.223,0.986c0.117,0.1,0.214,0.207,0.291,0.324
			c0.076,0.117,0.164,0.289,0.263,0.514l1.027,2.352h-2.271l-0.973-2.217c-0.081-0.197-0.185-0.337-0.311-0.419
			c-0.126-0.081-0.307-0.121-0.541-0.121h-1v2.757h-2.176V152.153z M23.341,156.424c0.433,0,0.766-0.108,1-0.324
			c0.234-0.217,0.352-0.536,0.352-0.96c0-0.873-0.419-1.311-1.257-1.311h-1.703v2.595H23.341z"/>
		<path fill="#000" d="M29.172,160.863c-0.5-0.086-0.93-0.21-1.291-0.372v-1.852c0.405,0.181,0.847,0.322,1.324,0.426
			c0.478,0.104,0.933,0.156,1.365,0.156c0.586,0,1-0.052,1.244-0.156c0.243-0.104,0.365-0.317,0.365-0.642
			c0-0.225-0.063-0.403-0.189-0.534c-0.126-0.13-0.318-0.243-0.575-0.338c-0.257-0.094-0.678-0.227-1.263-0.398
			c-0.604-0.18-1.079-0.38-1.426-0.602c-0.347-0.221-0.597-0.486-0.75-0.797c-0.153-0.311-0.229-0.7-0.229-1.169
			c0-0.838,0.299-1.476,0.899-1.912c0.599-0.438,1.475-0.655,2.628-0.655c0.477,0,0.957,0.036,1.439,0.107
			c0.482,0.072,0.881,0.162,1.196,0.271v1.865c-0.748-0.298-1.519-0.446-2.311-0.446c-0.55,0-0.959,0.052-1.23,0.155
			c-0.27,0.104-0.405,0.305-0.405,0.602c0,0.189,0.054,0.34,0.162,0.453c0.108,0.112,0.282,0.212,0.521,0.297
			c0.238,0.086,0.615,0.196,1.128,0.331c0.693,0.189,1.232,0.415,1.615,0.676c0.383,0.262,0.649,0.561,0.797,0.898
			c0.149,0.338,0.223,0.737,0.223,1.196c0,0.793-0.307,1.419-0.919,1.879c-0.613,0.459-1.514,0.688-2.703,0.688
			C30.21,160.991,29.672,160.948,29.172,160.863z"/>
		<path fill="#000" d="M36.341,159.896c-0.73-0.729-1.095-1.847-1.095-3.351c0-1.577,0.36-2.726,1.081-3.446
			s1.806-1.081,3.257-1.081c1.441,0,2.525,0.36,3.25,1.081c0.725,0.721,1.088,1.869,1.088,3.446c0,1.504-0.365,2.621-1.095,3.351
			c-0.73,0.73-1.811,1.095-3.244,1.095C38.152,160.991,37.071,160.627,36.341,159.896z M41.186,158.512
			c0.338-0.419,0.507-1.074,0.507-1.966c0-0.965-0.167-1.649-0.5-2.055c-0.333-0.405-0.87-0.608-1.608-0.608
			c-0.748,0-1.289,0.203-1.622,0.608c-0.333,0.405-0.5,1.09-0.5,2.055c0,0.892,0.169,1.547,0.507,1.966s0.876,0.629,1.615,0.629
			C40.314,159.141,40.848,158.931,41.186,158.512z"/>
		<path fill="#000" d="M45.578,160.863c-0.5-0.086-0.93-0.21-1.291-0.372v-1.852c0.405,0.181,0.847,0.322,1.324,0.426
			c0.478,0.104,0.933,0.156,1.365,0.156c0.586,0,1-0.052,1.244-0.156c0.243-0.104,0.365-0.317,0.365-0.642
			c0-0.225-0.063-0.403-0.189-0.534c-0.126-0.13-0.318-0.243-0.575-0.338c-0.257-0.094-0.678-0.227-1.263-0.398
			c-0.604-0.18-1.079-0.38-1.426-0.602c-0.347-0.221-0.597-0.486-0.75-0.797c-0.153-0.311-0.229-0.7-0.229-1.169
			c0-0.838,0.299-1.476,0.899-1.912c0.599-0.438,1.475-0.655,2.628-0.655c0.477,0,0.957,0.036,1.439,0.107
			c0.482,0.072,0.881,0.162,1.196,0.271v1.865c-0.748-0.298-1.519-0.446-2.311-0.446c-0.55,0-0.959,0.052-1.23,0.155
			c-0.27,0.104-0.405,0.305-0.405,0.602c0,0.189,0.054,0.34,0.162,0.453c0.108,0.112,0.282,0.212,0.521,0.297
			c0.238,0.086,0.615,0.196,1.128,0.331c0.693,0.189,1.232,0.415,1.615,0.676c0.383,0.262,0.649,0.561,0.797,0.898
			c0.149,0.338,0.223,0.737,0.223,1.196c0,0.793-0.307,1.419-0.919,1.879c-0.613,0.459-1.514,0.688-2.703,0.688
			C46.616,160.991,46.078,160.948,45.578,160.863z"/>
		<path fill="#000" d="M51.923,152.153h3.77c1.36,0,2.381,0.347,3.061,1.041c0.68,0.693,1.021,1.815,1.021,3.364
			c0,1.469-0.34,2.553-1.021,3.251s-1.701,1.047-3.061,1.047h-3.77V152.153z M55.396,159.181c0.504,0,0.91-0.072,1.216-0.216
			c0.307-0.145,0.541-0.406,0.703-0.784c0.162-0.379,0.243-0.919,0.243-1.622c0-0.711-0.074-1.264-0.223-1.655
			c-0.148-0.392-0.378-0.669-0.689-0.831c-0.311-0.162-0.728-0.243-1.25-0.243h-1.297v5.352H55.396z"/>
		<path fill="#000" d="M60.883,152.153h6.419v1.676h-4.243v1.824h3.743v1.703h-3.743v1.824h4.243v1.676h-6.419V152.153z"/>
		<path fill="#000" d="M68.343,152.153h6.419v1.676h-4.243v1.824h3.743v1.703h-3.743v1.824h4.243v1.676h-6.419V152.153z"/>
		<path fill="#000" d="M76.958,160.863c-0.5-0.086-0.93-0.21-1.291-0.372v-1.852c0.405,0.181,0.847,0.322,1.324,0.426
			c0.478,0.104,0.933,0.156,1.365,0.156c0.586,0,1-0.052,1.244-0.156c0.243-0.104,0.365-0.317,0.365-0.642
			c0-0.225-0.063-0.403-0.189-0.534c-0.126-0.13-0.318-0.243-0.575-0.338c-0.257-0.094-0.678-0.227-1.263-0.398
			c-0.604-0.18-1.079-0.38-1.426-0.602c-0.347-0.221-0.597-0.486-0.75-0.797c-0.153-0.311-0.229-0.7-0.229-1.169
			c0-0.838,0.299-1.476,0.899-1.912c0.599-0.438,1.475-0.655,2.628-0.655c0.477,0,0.957,0.036,1.439,0.107
			c0.482,0.072,0.881,0.162,1.196,0.271v1.865c-0.748-0.298-1.519-0.446-2.311-0.446c-0.55,0-0.959,0.052-1.23,0.155
			c-0.27,0.104-0.405,0.305-0.405,0.602c0,0.189,0.054,0.34,0.162,0.453c0.108,0.112,0.282,0.212,0.521,0.297
			c0.238,0.086,0.615,0.196,1.128,0.331c0.693,0.189,1.232,0.415,1.615,0.676c0.383,0.262,0.649,0.561,0.797,0.898
			c0.149,0.338,0.223,0.737,0.223,1.196c0,0.793-0.307,1.419-0.919,1.879c-0.613,0.459-1.514,0.688-2.703,0.688
			C77.996,160.991,77.458,160.948,76.958,160.863z"/>
		<path fill="#000" d="M83.303,152.153h4.284c1,0,1.759,0.286,2.277,0.858s0.777,1.322,0.777,2.25
			c0,0.595-0.126,1.121-0.378,1.581c-0.252,0.459-0.615,0.817-1.088,1.074c-0.473,0.257-1.02,0.386-1.642,0.386h-2.054v2.554h-2.176
			V152.153z M87.046,156.627c0.451,0,0.793-0.124,1.027-0.372c0.234-0.248,0.351-0.583,0.351-1.007c0-0.46-0.108-0.811-0.324-1.054
			s-0.545-0.365-0.987-0.365h-1.635v2.798H87.046z"/>
		<path fill="#000" d="M93.195,152.153h2.351l3.325,8.703H96.6l-0.784-1.973h-2.906l-0.77,1.973H89.87L93.195,152.153z
			 M95.519,157.275l-1.162-3.027l-1.149,3.027H95.519z"/>
		<path fill="#000" d="M99.979,152.153h1.865l3.703,5.203v-5.203h2.189v8.703h-1.879l-3.703-5.189v5.189h-2.176V152.153z"/>
		<path fill="#000" d="M109.114,152.153h2.176v3.446h3.405v-3.446h2.176v8.703h-2.176v-3.446h-3.405v3.446h-2.176V152.153z"/>
		<path fill="#000" d="M119.074,159.896c-0.729-0.729-1.095-1.847-1.095-3.351c0-1.577,0.36-2.726,1.081-3.446
			s1.807-1.081,3.257-1.081c1.441,0,2.525,0.36,3.25,1.081c0.726,0.721,1.088,1.869,1.088,3.446c0,1.504-0.364,2.621-1.095,3.351
			c-0.729,0.73-1.811,1.095-3.243,1.095S119.804,160.627,119.074,159.896z M123.919,158.512c0.338-0.419,0.507-1.074,0.507-1.966
			c0-0.965-0.167-1.649-0.5-2.055s-0.869-0.608-1.608-0.608c-0.748,0-1.288,0.203-1.621,0.608c-0.334,0.405-0.5,1.09-0.5,2.055
			c0,0.892,0.168,1.547,0.506,1.966s0.877,0.629,1.615,0.629C123.047,159.141,123.581,158.931,123.919,158.512z"/>
		<path fill="#000" d="M127.764,152.153h2.176v7.027h4.108v1.676h-6.284V152.153z"/>
		<path fill="#000" d="M134.832,159.896c-0.729-0.729-1.095-1.847-1.095-3.351c0-1.577,0.36-2.726,1.081-3.446
			s1.807-1.081,3.257-1.081c1.441,0,2.525,0.36,3.25,1.081c0.726,0.721,1.088,1.869,1.088,3.446c0,1.504-0.364,2.621-1.095,3.351
			c-0.729,0.73-1.811,1.095-3.243,1.095S135.562,160.627,134.832,159.896z M139.677,158.512c0.338-0.419,0.507-1.074,0.507-1.966
			c0-0.965-0.167-1.649-0.5-2.055s-0.869-0.608-1.608-0.608c-0.748,0-1.288,0.203-1.621,0.608c-0.334,0.405-0.5,1.09-0.5,2.055
			c0,0.892,0.168,1.547,0.506,1.966s0.877,0.629,1.615,0.629C138.805,159.141,139.339,158.931,139.677,158.512z"/>
		<path fill="#000" d="M143.521,152.153h1.864l3.703,5.203v-5.203h2.189v8.703H149.4l-3.703-5.189v5.189h-2.176V152.153z"/>
		<path fill="#000" d="M152.657,152.153h2.176v7.027h4.108v1.676h-6.284V152.153z"/>
		<path fill="#000" d="M159.779,152.153h2.176v8.703h-2.176V152.153z"/>
		<path fill="#000" d="M163.333,152.153h1.864l3.703,5.203v-5.203h2.189v8.703h-1.878l-3.703-5.189v5.189h-2.176V152.153z"/>
		<path fill="#000" d="M172.469,152.153h6.419v1.676h-4.243v1.824h3.743v1.703h-3.743v1.824h4.243v1.676h-6.419V152.153z"/>
		<path fill="#000" d="M179.657,159.262h1.743v1.595h-1.743V159.262z"/>
		<path fill="#000" d="M183.448,159.829c-0.807-0.774-1.21-1.86-1.21-3.257c0-1.468,0.392-2.595,1.176-3.378
			c0.784-0.784,1.946-1.176,3.486-1.176c0.505,0,0.967,0.038,1.386,0.114c0.419,0.077,0.835,0.188,1.25,0.331v1.906
			c-0.784-0.325-1.608-0.487-2.474-0.487c-0.9,0-1.561,0.217-1.979,0.649c-0.419,0.432-0.628,1.112-0.628,2.04
			c0,0.874,0.218,1.521,0.655,1.939c0.437,0.419,1.097,0.629,1.979,0.629c0.874,0,1.693-0.158,2.46-0.474v1.919
			c-0.793,0.271-1.672,0.405-2.636,0.405C185.409,160.991,184.254,160.604,183.448,159.829z"/>
		<path fill="#000" d="M190.874,159.896c-0.729-0.729-1.095-1.847-1.095-3.351c0-1.577,0.36-2.726,1.081-3.446
			s1.807-1.081,3.257-1.081c1.441,0,2.525,0.36,3.25,1.081c0.726,0.721,1.088,1.869,1.088,3.446c0,1.504-0.364,2.621-1.095,3.351
			c-0.729,0.73-1.811,1.095-3.243,1.095S191.604,160.627,190.874,159.896z M195.719,158.512c0.338-0.419,0.507-1.074,0.507-1.966
			c0-0.965-0.167-1.649-0.5-2.055s-0.869-0.608-1.608-0.608c-0.748,0-1.288,0.203-1.621,0.608c-0.334,0.405-0.5,1.09-0.5,2.055
			c0,0.892,0.168,1.547,0.506,1.966s0.877,0.629,1.615,0.629C194.847,159.141,195.381,158.931,195.719,158.512z"/>
		<path fill="#000" d="M199.091,152.153h2.148l2.365,4.824l2.352-4.824h2.135v8.703h-2.176v-5l-1.716,3.514h-1.203l-1.729-3.514
			v5h-2.176V152.153z"/>
	</g>
</g>
</svg>
